<svg xmlns="http://www.w3.org/2000/svg" width="195.992" height="61.999" viewBox="0 0 195.992 61.999">
  <path id="合体_13" data-name="合体 13" d="M7153.146,15205.817a5.44,5.44,0,0,1,1.29-5.95,7.1,7.1,0,0,1-1.691.393,6.317,6.317,0,0,1-.755.042,6.207,6.207,0,0,1-5.05-2.462,6.106,6.106,0,0,1-1.084-3.264,6.01,6.01,0,0,1,.775-3.336,19.732,19.732,0,0,1,2.936-3.122l.011-.012a48.951,48.951,0,0,0,3.672-3.726,2.98,2.98,0,1,0-1.21-1.206,50.087,50.087,0,0,0-3.714,3.649l-.015.019a19.949,19.949,0,0,1-3.134,2.947,5.9,5.9,0,0,1-3.02.778,6.09,6.09,0,0,1-3.584-1.088,6.3,6.3,0,0,1-2.416-5.806,7.338,7.338,0,0,1,.389-1.69,5.433,5.433,0,1,1,0-7.509,7.546,7.546,0,0,1-.389-1.69,6.3,6.3,0,0,1,2.416-5.806,6.09,6.09,0,0,1,3.584-1.088,5.94,5.94,0,0,1,3.02.778,19.749,19.749,0,0,1,3.134,2.951,49.928,49.928,0,0,0,3.733,3.668,45.374,45.374,0,0,0,4.729,3.522,45.84,45.84,0,0,0-3.523-4.729,49.587,49.587,0,0,0-3.668-3.722l-.008-.012a19.707,19.707,0,0,1-2.939-3.126,5.959,5.959,0,0,1-.771-3.336,6.068,6.068,0,0,1,1.08-3.264,6.225,6.225,0,0,1,5.05-2.47,7.178,7.178,0,0,1,2.447.438,5.432,5.432,0,1,1,7.5,0,7.159,7.159,0,0,1,1.691-.4,7.261,7.261,0,0,1,.756-.042,6.227,6.227,0,0,1,5.054,2.458,6.068,6.068,0,0,1,1.08,3.264,5.987,5.987,0,0,1-.771,3.336,19.53,19.53,0,0,1-2.947,3.13,51.6,51.6,0,0,0-3.676,3.741,2.974,2.974,0,1,0,1.21,1.206,48.56,48.56,0,0,0,3.729-3.672,19.794,19.794,0,0,1,3.134-2.951,5.978,5.978,0,0,1,3.019-.778,6.1,6.1,0,0,1,3.577,1.092,6.292,6.292,0,0,1,2.416,5.806,7.18,7.18,0,0,1-.4,1.69,5.435,5.435,0,1,1,0,7.5,7.18,7.18,0,0,1,.4,1.69,6.3,6.3,0,0,1-2.416,5.81,6.091,6.091,0,0,1-3.584,1.088,5.9,5.9,0,0,1-3.019-.778,19.794,19.794,0,0,1-3.134-2.951l-.015-.015a50.14,50.14,0,0,0-3.714-3.653,44.986,44.986,0,0,0-4.729-3.52,46.1,46.1,0,0,0,3.516,4.729,49.733,49.733,0,0,0,3.672,3.729l0,0a19.6,19.6,0,0,1,2.954,3.13,5.958,5.958,0,0,1,.771,3.336,6.045,6.045,0,0,1-1.08,3.26,6.458,6.458,0,0,1-5.806,2.416,7.183,7.183,0,0,1-1.695-.393,5.431,5.431,0,0,1-3.748,9.362v0A5.438,5.438,0,0,1,7153.146,15205.817Zm5.046-7.454a5.576,5.576,0,0,1,1.542.221,8.565,8.565,0,0,1-1.542-1.7,8.721,8.721,0,0,1-1.546,1.7,5.444,5.444,0,0,1,1.546-.225Zm-20.356-18.589a1.55,1.55,0,1,0,0-3.085A5.437,5.437,0,0,1,7137.836,15179.774Zm39.006-1.546a8.585,8.585,0,0,1,1.7,1.542,5.437,5.437,0,0,1,0-3.085A8.62,8.62,0,0,1,7176.842,15178.229Zm-18.65-18.65a8.586,8.586,0,0,1,1.542-1.7,5.447,5.447,0,0,1-3.088,0A8.743,8.743,0,0,1,7158.192,15159.578Zm127.881,41.594.007-16.967a77.084,77.084,0,0,1-8.791,5.543l-2.153-2.974a57.037,57.037,0,0,0,10.989-7.115,35.017,35.017,0,0,0,7.031-7.737l3.523,2.157a59.13,59.13,0,0,1-6.764,7.016v20.077Zm18.348-.034v-28.83h3.821l0,10.027a55.344,55.344,0,0,1,13.115,5.294l-1.92,3.623a41.8,41.8,0,0,0-11.2-5.268v15.153Zm-103.987-3.79q8.737-1.551,13.283-6.3a21.262,21.262,0,0,0,3.875-6.016,33.24,33.24,0,0,0,2.221-7.3h0l3.409,1.955a34.893,34.893,0,0,1-2.791,8.068,21.925,21.925,0,0,1-3.809,5.615q-5.434,5.542-14.5,7.432Zm48.793,2.187v-3.256h9.306l0-17.5H7250.6v-3.26h19.811v3.26h-7.966v17.5h9.668v3.256Zm-22.585-11.092.008-3.726H7246v3.726Zm-27.944-4.508,1.638-2.84a48.251,48.251,0,0,1,8.584,3.622l-1.8,3.138A40.341,40.341,0,0,0,7198.7,15183.935Zm2.9-7.283h0l1.821-2.84a41.229,41.229,0,0,1,8.3,3.859l-1.939,3.156A30.162,30.162,0,0,0,7201.6,15176.651Zm109.655-9.9h-.863a.158.158,0,0,1-.1-.019.192.192,0,0,1-.015-.092l.019-.916v-.794q-.736.029-1.475.053a5.23,5.23,0,0,1,.707.424c.077.05.115.1.115.146,0,.034-.054.076-.153.126a2.165,2.165,0,0,0-.351.2,7.957,7.957,0,0,1-1.683.748c-.149.038-.229.058-.241.058-.072,0-.149-.076-.233-.229a2.117,2.117,0,0,0-.389-.508,7.576,7.576,0,0,0,1.783-.6,2.012,2.012,0,0,0,.436-.359q-.687.022-1.375.039a1.087,1.087,0,0,0-.4.049.585.585,0,0,1-.184.05c-.042,0-.076-.042-.1-.122a7.705,7.705,0,0,1-.145-.836c.275.02.622.03,1.038.03h.539c.294,0,.733,0,1.32-.011a8.456,8.456,0,0,0-1.358-.836c-.062-.031-.088-.062-.088-.084s.026-.058.08-.1l.466-.366a.251.251,0,0,1,.122-.062.211.211,0,0,1,.1.042c.294.18.485.3.569.355a5.348,5.348,0,0,0,.668-.572,2.943,2.943,0,0,0,.271-.367,4.978,4.978,0,0,1,.7.412c.1.069.153.123.153.165s-.038.1-.122.118a1.056,1.056,0,0,0-.3.179,7.269,7.269,0,0,1-.672.538c.023.02.115.088.279.207.1.072.179.133.24.187.477-.366.9-.718,1.268-1.046a3.214,3.214,0,0,0,.355-.393,5.522,5.522,0,0,1,.767.381c.072.05.107.1.107.149s-.046.088-.134.122a1.031,1.031,0,0,0-.317.172c-.3.252-.607.492-.935.722.451-.016.993-.042,1.638-.081l-.313-.282c-.038-.034-.058-.057-.058-.072s.035-.046.107-.084l.451-.252a.309.309,0,0,1,.114-.046.169.169,0,0,1,.1.054v.008a9.344,9.344,0,0,1,1.408,1.343.174.174,0,0,1,.05.088c0,.023-.034.054-.1.1l-.558.316a.364.364,0,0,1-.1.058c-.027,0-.053-.022-.084-.068-.076-.111-.206-.271-.382-.489-.6.058-1.481.119-2.656.184v.848l.022.912a.155.155,0,0,1-.022.1.142.142,0,0,1-.07.017Zm-18.917,0h-.878a.16.16,0,0,1-.1-.019.175.175,0,0,1-.015-.088c0-.076.008-.516.023-1.321.015-.721.023-1.34.027-1.858a9.009,9.009,0,0,1-3.138,2.744,1.128,1.128,0,0,1-.241.1c-.042,0-.107-.08-.19-.24a2.809,2.809,0,0,0-.474-.665,8.6,8.6,0,0,0,3.352-2.473h-1.741l-1.283.019c-.053,0-.084-.008-.091-.022a.185.185,0,0,1-.012-.1v-.736c0-.054.008-.084.019-.092a.149.149,0,0,1,.081-.016l1.282.02h2.417v-2.156h-1.852l-1.347.019a.154.154,0,0,1-.1-.019.141.141,0,0,1-.015-.088v-.748c0-.054.008-.084.023-.092a.14.14,0,0,1,.1-.016l1.347.02h1.851v-.21a8.944,8.944,0,0,0-.068-1.191c.412.016.775.038,1.088.076.091,0,.141.038.141.1,0,.012-.019.1-.065.278a4.242,4.242,0,0,0-.05.729v.222h2.008l1.34-.023c.057,0,.092.008.1.02a.126.126,0,0,1,.023.091v.745c0,.053-.007.084-.027.095a.211.211,0,0,1-.1.016l-1.347-.022h-2v2.16h.634a8.46,8.46,0,0,0,.661-1.374,2.694,2.694,0,0,0,.16-.538,9.505,9.505,0,0,1,1.019.255c.107.039.16.092.16.161a.139.139,0,0,1-.091.129,1.213,1.213,0,0,0-.252.367c-.237.416-.439.748-.6,1h.862l1.279-.023a.167.167,0,0,1,.1.023.22.22,0,0,1,.016.088v.736a.2.2,0,0,1-.02.1.172.172,0,0,1-.1.019l-1.275-.019h-1.92a9.8,9.8,0,0,0,3.611,2.424,2.653,2.653,0,0,0-.519.729q-.114.252-.183.252a.989.989,0,0,1-.229-.1,8.847,8.847,0,0,1-3.34-2.84q.006.687.03,2.141c.012.6.016.97.016,1.1,0,.05,0,.08-.02.092a.144.144,0,0,1-.072.02Zm-30.113-.019h-.855c-.065,0-.1-.038-.1-.111,0-.034,0-.137.008-.312.019-.542.026-1.088.03-1.638a8.327,8.327,0,0,1-3.233,1.8.789.789,0,0,1-.229.058c-.069,0-.141-.084-.221-.26a2.289,2.289,0,0,0-.4-.6,8.685,8.685,0,0,0,3.206-1.4h-1.626l-1.275.019a.154.154,0,0,1-.1-.019.175.175,0,0,1-.015-.088v-.6a.2.2,0,0,1,.019-.1.236.236,0,0,1,.1-.016l1.271.023h2.481v-.543h-1.42l-1.389.023c-.054,0-.084-.008-.092-.023a.25.25,0,0,1-.008-.091v-.577a.175.175,0,0,1,.016-.1.125.125,0,0,1,.084-.016l1.389.02h1.416v-.531H7259.4l-1.347.023c-.058,0-.092-.008-.1-.023a.2.2,0,0,1-.019-.076v-.595c0-.058.008-.088.023-.1a.226.226,0,0,1,.1-.02l1.348.023h.614a6.111,6.111,0,0,0-.32-.634.422.422,0,0,1-.035-.1c0-.026.035-.053.1-.076l.653-.184h-1.607l-1.275.023a.151.151,0,0,1-.1-.023.169.169,0,0,1-.015-.087v-.623a.2.2,0,0,1,.019-.106.2.2,0,0,1,.1-.016l1.271.02h.069a4.851,4.851,0,0,0-.577-.866.12.12,0,0,1-.034-.069c0-.03.038-.061.118-.1l.581-.271a.2.2,0,0,1,.091-.026.143.143,0,0,1,.1.064,5.587,5.587,0,0,1,.676.981.15.15,0,0,1,.03.072c0,.023-.038.058-.114.1l-.241.118h.936v-.668a4.8,4.8,0,0,0-.058-.874c.4.012.729.03.97.057.084.012.126.042.126.092a.712.712,0,0,1-.042.172,1.678,1.678,0,0,0-.057.554v.664h.817v-.652a4.618,4.618,0,0,0-.065-.886,8.165,8.165,0,0,1,.965.068c.092.012.134.042.134.092a.427.427,0,0,1-.038.156,1.617,1.617,0,0,0-.065.558v.664h.626a8.054,8.054,0,0,0,.462-.824,1.964,1.964,0,0,0,.172-.542,7.967,7.967,0,0,1,.973.259c.088.031.134.073.134.13a.248.248,0,0,1-.1.172,1,1,0,0,0-.172.191c-.084.133-.222.34-.412.614h.145l1.267-.022c.05,0,.084.007.092.026a.175.175,0,0,1,.015.1v.627a.145.145,0,0,1-.019.091.161.161,0,0,1-.1.016l-1.267-.023h-1.764c.279.054.542.115.794.184.092.023.134.065.134.122a.171.171,0,0,1-.111.149.807.807,0,0,0-.137.21l-.183.324h.656l1.344-.02c.057,0,.091,0,.1.02a.2.2,0,0,1,.015.1v.591c0,.069-.038.1-.114.1l-1.348-.023h-2.038v.531h1.6l1.386-.02c.053,0,.087.008.1.023a.154.154,0,0,1,.015.091v.577a.147.147,0,0,1-.015.1.159.159,0,0,1-.1.02l-1.386-.023h-1.6v.542h2.649l1.267-.019c.054,0,.084.008.1.022a.273.273,0,0,1,.015.1v.6a.144.144,0,0,1-.019.088.152.152,0,0,1-.092.019l-1.267-.019h-1.794a9.412,9.412,0,0,0,3.351,1.3,2.76,2.76,0,0,0-.393.649c-.072.176-.145.263-.221.263a1.479,1.479,0,0,1-.229-.049,8.506,8.506,0,0,1-3.382-1.806l.049,1.984a.18.18,0,0,1-.019.1.177.177,0,0,1-.065.013Zm-1.641-6.764a6.61,6.61,0,0,1,.45.9h1.653c.088-.168.176-.362.268-.58h0a2.884,2.884,0,0,0,.111-.405h-2.565A.406.406,0,0,1,7260.587,15159.972Zm21.181,6.756h-.9c-.053,0-.084-.008-.1-.023a.166.166,0,0,1-.015-.088c0-.091.011-.591.03-1.5.015-.8.027-1.465.031-2a9.471,9.471,0,0,1-3.191,2.943.567.567,0,0,1-.229.11c-.045,0-.107-.08-.183-.24a2.4,2.4,0,0,0-.481-.69,8.643,8.643,0,0,0,3.493-2.8l-1.767,0-1.287.019a.177.177,0,0,1-.1-.019.158.158,0,0,1-.015-.092v-.779c0-.053,0-.084.019-.091a.184.184,0,0,1,.091-.02l1.287.023h2.324v-1.432h-1.442l-1.39.019c-.069,0-.1-.034-.1-.106v-.806c0-.068.03-.106.1-.106l1.39.019h1.442v-.351a7.824,7.824,0,0,0-.068-1.2,10.489,10.489,0,0,1,1.107.069c.107.008.16.046.16.11a.479.479,0,0,1-.034.146.566.566,0,0,0-.038.118,3.827,3.827,0,0,0-.05.729v.374h1.611l1.385-.019c.065,0,.1.034.1.106v.806c0,.072-.035.106-.1.106l-1.385-.019h-1.615v1.432h2.477l1.287-.023c.061,0,.1.008.1.023a.223.223,0,0,1,.015.087v.779a.156.156,0,0,1-.019.092.151.151,0,0,1-.1.015l-1.283-.019h-2.011a8.264,8.264,0,0,0,1.775,1.664,9.434,9.434,0,0,0,2.019,1.106,2.661,2.661,0,0,0-.519.733c-.069.152-.126.229-.176.229a1.073,1.073,0,0,1-.24-.1,8.922,8.922,0,0,1-3.348-2.978c0,.286.011,1.042.034,2.26.008.664.016,1.088.016,1.268a.149.149,0,0,1-.023.1.132.132,0,0,1-.066.017Zm32.46-.172a9.732,9.732,0,0,1-2.123-1.038c-.045-.03-.068-.054-.068-.069s.019-.049.061-.091l.431-.394a.224.224,0,0,1,.115-.058.243.243,0,0,1,.1.039,8.453,8.453,0,0,0,2.359.874,1.831,1.831,0,0,0-.412.553c-.081.161-.157.241-.222.241A.864.864,0,0,1,7314.228,15166.556Zm3.34-3.782a.812.812,0,0,1-.332-.657.843.843,0,0,1,.271-.622c.832-.832,1.45-1.474,1.863-1.92q.732-.807,1.473-1.756l.951.66a42.178,42.178,0,0,1-3.191,3.275.473.473,0,0,0-.191.344c0,.076.1.194.3.347a30.3,30.3,0,0,1,3.512,3.306l-.9.756A24.743,24.743,0,0,0,7317.568,15162.773Zm-117.732,2.874a3.667,3.667,0,0,0,1.9-1.458,4.645,4.645,0,0,0,.477-2.287v-1.694h1.138v1.534a5.477,5.477,0,0,1-.794,3.164,4.891,4.891,0,0,1-1.955,1.565Zm17.73-.069a6,6,0,0,0,1.824-.614,2.329,2.329,0,0,0,1.008-1.126,4.988,4.988,0,0,0,.309-1.95v-3.722h1.126v3.81a4.425,4.425,0,0,1-1.039,3.252,5.275,5.275,0,0,1-2.7,1.232Zm36.857.794h-6.233l-1.271.02a.087.087,0,0,1-.1-.1v-.8c0-.077.035-.115.1-.115l1.271.023h.267v-2.2a5.023,5.023,0,0,0-.077-1.095q.658.016,1.134.068c.111.016.164.054.164.114a.953.953,0,0,1-.068.21,2.5,2.5,0,0,0-.065.737v2.168h1.389v-3.833a6.128,6.128,0,0,0-.065-1.095c.455.011.829.038,1.123.068.11.012.164.05.164.11a.623.623,0,0,1-.061.222,2.2,2.2,0,0,0-.061.726v.935h1.015l1.3-.019a.153.153,0,0,1,.1.019.166.166,0,0,1,.015.1v.782a.145.145,0,0,1-.019.092.162.162,0,0,1-.1.02l-1.294-.023h-1.023v1.9h2.393l1.26-.023c.053,0,.088.008.1.023a.181.181,0,0,1,.015.092v.8c0,.069-.038.1-.114.1Zm45.079-.454a1.324,1.324,0,0,1-.447-1.1,1.734,1.734,0,0,1,.531-1.248,7.1,7.1,0,0,1,1.886-1.2,1.17,1.17,0,0,0-.168-.645.475.475,0,0,0-.371-.134,1.857,1.857,0,0,0-1.107.53,11.029,11.029,0,0,0-1.13,1.18l-.744-.642a11.05,11.05,0,0,0,2.042-2.768c-.191.008-.454.012-.794.012-.217,0-.546-.008-.988-.022V15159c.423.019.8.026,1.122.026.458,0,.817,0,1.065-.008a13.417,13.417,0,0,0,.412-1.316l1.038.164c-.126.382-.259.756-.412,1.122v0c.954-.042,1.821-.1,2.6-.18l.038.874c-1.165.084-2.191.146-3.073.18a6.612,6.612,0,0,1-.787,1.149l-.232.221.03.042.252-.179a1.435,1.435,0,0,1,.863-.287,1.151,1.151,0,0,1,.84.325,1.48,1.48,0,0,1,.4.794c.271-.122.943-.416,2.012-.874l.393.942q-1.345.453-2.359.9v1.946h-.943v-1.508a5.2,5.2,0,0,0-1.218.806.847.847,0,0,0-.271.6.571.571,0,0,0,.382.577,4.22,4.22,0,0,0,1.409.16,26.129,26.129,0,0,0,2.611-.146l.049.943c-.9.064-1.828.1-2.775.1a3.547,3.547,0,0,1-.367.019A3.627,3.627,0,0,1,7299.5,15165.918Zm-67.107.466v-8.485h1.122v2.951a16.19,16.19,0,0,1,3.859,1.557l-.565,1.069a12.125,12.125,0,0,0-3.294-1.55v4.458Zm-20.364-3.038a9.857,9.857,0,0,1-3.592,3l-.645-.862a8.3,8.3,0,0,0,3.3-2.718,8.7,8.7,0,0,0,1.431-3.283h-4.084v-.954h5.184l.278.382a12.714,12.714,0,0,1-1.278,3.5,23.329,23.329,0,0,1,2.317,3.294l-1.058.661A18.056,18.056,0,0,0,7212.031,15163.346Zm59.454,2.152a3.38,3.38,0,0,0,2.184-1.18,3.22,3.22,0,0,0,.515-1.92,3.65,3.65,0,0,0-.645-2.358,1.713,1.713,0,0,0-1.283-.63,15.206,15.206,0,0,1-.981,5.1,2.406,2.406,0,0,1-.756,1.038,1.477,1.477,0,0,1-.835.236,1.421,1.421,0,0,1-1.268-.812,4.043,4.043,0,0,1-.435-2.012,4.566,4.566,0,0,1,1.145-3.248,3.41,3.41,0,0,1,1.279-.852,4.015,4.015,0,0,1,1.451-.264q3.435,0,3.431,3.943,0,3.081-3.279,3.813Zm-1.771-5.062a4.081,4.081,0,0,0-.744,2.565,2.975,2.975,0,0,0,.252,1.374c.126.244.282.362.469.362a.5.5,0,0,0,.39-.16,1.561,1.561,0,0,0,.286-.53,13.074,13.074,0,0,0,.584-2.244,16.328,16.328,0,0,0,.259-2.325A2.212,2.212,0,0,0,7269.714,15160.437Zm-29.818,5.3a1.91,1.91,0,0,1-.684-1.63,3.293,3.293,0,0,1,1.806-2.634,34.905,34.905,0,0,1-.756-3.535l1.065-.084a23.778,23.778,0,0,0,.6,3.062q.189-.1,2.317-1.2l.554.92a16.184,16.184,0,0,0-3.4,1.71,3.084,3.084,0,0,0-.9.942,1.719,1.719,0,0,0-.252.848.973.973,0,0,0,.5.912,3.062,3.062,0,0,0,1.462.264,24.449,24.449,0,0,0,2.592-.13v1.046c-.817.042-1.618.061-2.409.061-.123.011-.246.017-.369.017A4.26,4.26,0,0,1,7239.9,15165.739Zm-22.875-2.554v-4.963h1.115v4.963Zm97.964-.279a6.987,6.987,0,0,1-2.054-.718,6.111,6.111,0,0,1-1.336.455.8.8,0,0,1-.187.034c-.061,0-.13-.072-.2-.226a2.266,2.266,0,0,0-.219-.405,6.891,6.891,0,0,0,1.3-.343,3.864,3.864,0,0,1-.825-1.034c-.122.008-.221.008-.3.008a.15.15,0,0,1-.107-.02.113.113,0,0,1-.015-.08v-.522c0-.054.007-.084.023-.1a.212.212,0,0,1,.1-.016l1.107.023h1.813a.457.457,0,0,0,.191-.031c.042-.011.084-.022.126-.03s.16.076.324.222c.187.164.283.274.283.332a.183.183,0,0,1-.1.142,1.111,1.111,0,0,0-.325.29,5.156,5.156,0,0,1-.855.824,7.5,7.5,0,0,0,1.894.454,1.593,1.593,0,0,0-.264.516c-.053.164-.114.248-.179.248A.988.988,0,0,1,7314.984,15162.906Zm-1.955-1.58v0a3.266,3.266,0,0,0,.741-.672h-1.451A3.084,3.084,0,0,0,7313.029,15161.326Zm-88.971,1.321v-1.1h5.695v1.1Zm84.219-.039a.137.137,0,0,1-.016-.087v-.13a1.624,1.624,0,0,1,.016-.233h-.584l-1.214.02a.17.17,0,0,1-.1-.02.249.249,0,0,1-.016-.092v-.454c0-.053.008-.084.023-.095a.183.183,0,0,1,.092-.016l1.218.026h.6v-.354h-.259l-1.107.019c-.058,0-.092,0-.1-.019a.2.2,0,0,1-.015-.1l.023-.638v-.683l-.023-.653c0-.053.008-.088.023-.1a.149.149,0,0,1,.092-.016l1.107.02h.259v-.363h-.519l-1.218.02c-.068,0-.1-.034-.1-.107v-.423a.211.211,0,0,1,.019-.107.173.173,0,0,1,.084-.016l1.218.02h.523a3.873,3.873,0,0,0-.049-.55c.316.012.606.03.874.062.087.008.133.038.133.088a.444.444,0,0,1-.038.122.541.541,0,0,0-.053.278h.477l1.206-.02a.141.141,0,0,1,.1.023.194.194,0,0,1,.016.1v.42a.15.15,0,0,1-.02.1.2.2,0,0,1-.1.016l-1.206-.02h-.477v.359h.294l1.1-.023c.054,0,.084.008.1.023a.184.184,0,0,1,.015.091l-.019.653v.683l.019.638a.177.177,0,0,1-.019.1.2.2,0,0,1-.092.015l-1.1-.019h-.294v.347h.45l1.229-.019a.2.2,0,0,1,.1.019.256.256,0,0,1,.016.092v.454c0,.054-.008.084-.023.1a.183.183,0,0,1-.092.016l-1.229-.02h-.451l.008.363c0,.049-.008.084-.019.091a.173.173,0,0,1-.1.016h-.664a.113.113,0,0,1-.025,0A.176.176,0,0,1,7308.277,15162.608Zm.839-1.92.733,0v-.378h-.733Zm-1.5,0h.714v-.378h-.714Zm1.5-.824h.737l0-.374h-.733Zm-1.5,0h.714v-.374h-.714Zm-103.8,1.729a3.545,3.545,0,0,0,1-1.138,2.892,2.892,0,0,0,.374-1.058h-5.577v-.958h6.642l.241.3a6.2,6.2,0,0,1-.645,2.138,5.068,5.068,0,0,1-1.176,1.416Zm43.167.286a2.61,2.61,0,0,0-.474-.7,9.039,9.039,0,0,0,3.886-3.057,3,3,0,0,0,.37-.745c.237.031.6.107,1.084.218.122.034.183.088.183.164a.2.2,0,0,1-.107.153l-.084.068a9.349,9.349,0,0,0,4.307,3.053,2.9,2.9,0,0,0-.452.769q-.1.252-.171.252a.8.8,0,0,1-.229-.081,9.853,9.853,0,0,1-4.027-3.176,10.977,10.977,0,0,1-3.867,3.218.95.95,0,0,1-.24.1C7247.113,15162.128,7247.056,15162.044,7246.98,15161.884Zm64,.16,0,0h0Zm9.562-1.626.623-.3a8.845,8.845,0,0,1,.885,1.6l-.645.316A8.152,8.152,0,0,0,7320.545,15160.418Zm-31.082,1.394a6.128,6.128,0,0,0-.6-1.245.161.161,0,0,1-.034-.084c0-.03.038-.057.118-.08l.7-.256a.31.31,0,0,1,.1-.026c.034,0,.069.022.1.076v0a8.354,8.354,0,0,1,.634,1.233.21.21,0,0,1,.015.068c0,.034-.038.068-.118.1l-.722.271a.336.336,0,0,1-.107.03C7289.513,15161.9,7289.486,15161.868,7289.463,15161.812Zm32.247-1.859v0l.614-.29a10.05,10.05,0,0,1,.855,1.52l-.626.343A9.9,9.9,0,0,0,7321.709,15159.952Zm-65.563,1.091,0,0v0Zm55.032-1.438a1.155,1.155,0,0,0-.374-.366,1.519,1.519,0,0,0,.748-.378.981.981,0,0,0,.191-.63l-.019-.366c0-.058,0-.092.019-.1a.176.176,0,0,1,.088-.011l.755.019h.707l.771-.019a.087.087,0,0,1,.122.11l-.019.492v.443a.165.165,0,0,0,.057.148.472.472,0,0,0,.229.042.292.292,0,0,0,.248-.1,2.042,2.042,0,0,0,.069-.646,2.666,2.666,0,0,0,.5.214,1.28,1.28,0,0,1,.2.076.144.144,0,0,1,.038.11,1.261,1.261,0,0,1-.011.138.924.924,0,0,1-.294.7,1.434,1.434,0,0,1-.825.172,2.693,2.693,0,0,1-.805-.076.464.464,0,0,1-.26-.484v-.607h-.74a1.335,1.335,0,0,1-.275.813,1.846,1.846,0,0,1-.676.462.829.829,0,0,1-.229.08C7311.342,15159.838,7311.27,15159.758,7311.178,15159.6Z" transform="translate(-7127.187 -15147.23)" fill="#fff"/>
</svg>
