<svg xmlns="http://www.w3.org/2000/svg" width="194.784" height="61.619" viewBox="0 0 194.784 61.619">
  <g id="グループ_285" data-name="グループ 285" transform="translate(1485.81 -15166.68)">
    <path id="パス_186" data-name="パス 186" d="M.669-7.461h6.6l.239.3a6.149,6.149,0,0,1-.64,2.124A4.979,4.979,0,0,1,5.7-3.628l-.859-.7a3.465,3.465,0,0,0,1-1.128,2.891,2.891,0,0,0,.371-1.05H.669ZM.889-.3a3.634,3.634,0,0,0,1.885-1.45,4.56,4.56,0,0,0,.474-2.271V-5.708H4.38V-4.18a5.454,5.454,0,0,1-.791,3.145A4.855,4.855,0,0,1,1.65.518ZM13.6-3.521A23.254,23.254,0,0,1,15.9-.249L14.851.41a18.142,18.142,0,0,0-1.841-3A9.808,9.808,0,0,1,9.441.391L8.8-.469a8.225,8.225,0,0,0,3.276-2.7A8.617,8.617,0,0,0,13.5-6.431H9.441v-.947h5.151L14.871-7A12.748,12.748,0,0,1,13.6-3.521Zm5.476-4.16v4.932H17.969V-7.681Zm-.566,7.31a6.015,6.015,0,0,0,1.816-.61,2.321,2.321,0,0,0,1-1.118,5,5,0,0,0,.308-1.938v-3.7h1.118V-3.95a4.4,4.4,0,0,1-1.03,3.232A5.267,5.267,0,0,1,19.038.508Zm6.453-4h5.659v1.089H24.963Zm9.4-.7A16.138,16.138,0,0,1,38.2-3.521l-.562,1.06A12.168,12.168,0,0,0,34.365-4V.43H33.247V-8h1.118ZM42.727-5q.186-.1,2.3-1.191l.552.913a16.229,16.229,0,0,0-3.384,1.7,3.048,3.048,0,0,0-.9.938,1.652,1.652,0,0,0-.249.84.965.965,0,0,0,.5.908A3.07,3.07,0,0,0,43-.63a24.165,24.165,0,0,0,2.573-.132V.278q-1.216.063-2.393.063A4.193,4.193,0,0,1,40.705-.21a1.892,1.892,0,0,1-.679-1.621,3.261,3.261,0,0,1,1.792-2.617,34.882,34.882,0,0,1-.752-3.511l1.06-.083A23.712,23.712,0,0,0,42.727-5ZM48.945.42l-1.26.02q-.1,0-.1-.1v-.8q0-.112.1-.112l1.26.02h.269V-2.739a5.227,5.227,0,0,0-.078-1.089q.654.015,1.128.068.161.02.161.112a.813.813,0,0,1-.068.21,2.455,2.455,0,0,0-.063.732V-.552h1.382V-4.36a6.006,6.006,0,0,0-.068-1.089q.679.02,1.118.068.161.02.161.112a.629.629,0,0,1-.059.22,2.231,2.231,0,0,0-.063.718V-3.4h1.011l1.289-.02a.155.155,0,0,1,.1.02.182.182,0,0,1,.015.093v.781q0,.073-.02.09a.16.16,0,0,1-.093.017l-1.289-.02H52.764V-.552h2.378l1.25-.02q.083,0,.1.02a.182.182,0,0,1,.015.093v.8q0,.1-.112.1L55.141.42Zm7.91-5.3a2.888,2.888,0,0,0-.449.767q-.1.249-.171.249a.782.782,0,0,1-.229-.078,9.807,9.807,0,0,1-4-3.159,10.976,10.976,0,0,1-3.843,3.2.989.989,0,0,1-.239.1q-.068,0-.181-.239a2.6,2.6,0,0,0-.469-.693,8.99,8.99,0,0,0,3.862-3.037,3.03,3.03,0,0,0,.366-.742q.356.049,1.079.22.181.049.181.161a.18.18,0,0,1-.107.151l-.083.068A9.306,9.306,0,0,0,56.855-4.878ZM59.5-1.67l-1.265.02a.166.166,0,0,1-.1-.02.168.168,0,0,1-.015-.088v-.6a.166.166,0,0,1,.02-.1.2.2,0,0,1,.1-.015l1.265.02h2.466v-.537H60.559l-1.382.02q-.078,0-.088-.02a.239.239,0,0,1-.01-.093v-.571a.2.2,0,0,1,.015-.1.14.14,0,0,1,.083-.015l1.382.02h1.406v-.527h-1.88l-1.338.02q-.088,0-.1-.02t-.02-.078v-.591q0-.083.024-.1a.2.2,0,0,1,.1-.015l1.338.02h.61a6.608,6.608,0,0,0-.317-.63.232.232,0,0,1-.034-.093q0-.044.1-.078l.649-.181H59.5L58.235-6a.166.166,0,0,1-.1-.02.168.168,0,0,1-.015-.088v-.62a.178.178,0,0,1,.02-.107.2.2,0,0,1,.1-.015l1.265.02h.068A5.066,5.066,0,0,0,59-7.69a.112.112,0,0,1-.034-.068q0-.044.117-.1l.576-.269a.259.259,0,0,1,.093-.029q.044,0,.1.068a5.747,5.747,0,0,1,.674.972.2.2,0,0,1,.029.073q0,.034-.112.1l-.239.117h.928V-7.49a4.635,4.635,0,0,0-.059-.869q.605.02.967.059.122.015.122.088a.672.672,0,0,1-.039.171,1.691,1.691,0,0,0-.059.552v.659h.811V-7.48a4.354,4.354,0,0,0-.063-.879,8.891,8.891,0,0,1,.962.068q.132.015.132.093a.486.486,0,0,1-.039.156,1.568,1.568,0,0,0-.063.552v.659h.62a7.289,7.289,0,0,0,.459-.82,1.946,1.946,0,0,0,.171-.537,7.628,7.628,0,0,1,.967.259q.132.044.132.127a.23.23,0,0,1-.1.171.993.993,0,0,0-.171.19q-.127.2-.41.61h.142l1.26-.02q.078,0,.093.024a.2.2,0,0,1,.015.1v.62q0,.078-.02.093A.168.168,0,0,1,66.868-6l-1.26-.02H63.855q.415.078.791.181.132.034.132.122a.164.164,0,0,1-.112.146.979.979,0,0,0-.137.21l-.181.322H65l1.338-.02q.083,0,.1.02a.182.182,0,0,1,.015.093v.591q0,.1-.112.1L65-4.277H62.976v.527h1.592l1.377-.02q.083,0,.1.024a.182.182,0,0,1,.015.093v.571a.159.159,0,0,1-.017.1.159.159,0,0,1-.1.017l-1.377-.02H62.976v.537h2.632l1.26-.02q.078,0,.093.024a.182.182,0,0,1,.015.093v.6a.147.147,0,0,1-.017.09.147.147,0,0,1-.09.017l-1.26-.02H63.826a9.358,9.358,0,0,0,3.33,1.3,2.79,2.79,0,0,0-.391.645q-.107.259-.22.259a1.357,1.357,0,0,1-.229-.049,8.437,8.437,0,0,1-3.359-1.792L63.005.669a.155.155,0,0,1-.02.1A.168.168,0,0,1,62.9.781h-.85q-.1,0-.1-.112,0-.049.01-.312.024-.806.029-1.626A8.257,8.257,0,0,1,58.777.522a.846.846,0,0,1-.229.059q-.1,0-.22-.259a2.219,2.219,0,0,0-.4-.6A8.638,8.638,0,0,0,61.116-1.67Zm4.126-3.95a2.291,2.291,0,0,0,.112-.4H61.189a.274.274,0,0,1,.078.078,6.657,6.657,0,0,1,.449.9h1.641Q63.489-5.293,63.625-5.62ZM72.866-6.5a15.13,15.13,0,0,1-.977,5.068A2.384,2.384,0,0,1,71.138-.4a1.447,1.447,0,0,1-.83.234,1.408,1.408,0,0,1-1.26-.806,4.008,4.008,0,0,1-.43-2A4.518,4.518,0,0,1,69.756-6.2a3.333,3.333,0,0,1,1.27-.845,3.942,3.942,0,0,1,1.44-.264q3.413,0,3.413,3.921,0,3.062-3.262,3.789L72.1-.449a3.363,3.363,0,0,0,2.168-1.172A3.191,3.191,0,0,0,74.78-3.53a3.616,3.616,0,0,0-.64-2.344A1.7,1.7,0,0,0,72.866-6.5Zm-1.04.068a2.216,2.216,0,0,0-1.489.952A4.042,4.042,0,0,0,69.6-2.93a2.967,2.967,0,0,0,.249,1.367q.19.361.469.361a.506.506,0,0,0,.386-.161,1.551,1.551,0,0,0,.283-.527,12.983,12.983,0,0,0,.581-2.231A16.175,16.175,0,0,0,71.826-6.431Zm7.2,2.935-1.279.02a.155.155,0,0,1-.1-.02.168.168,0,0,1-.015-.088V-4.36q0-.078.02-.093a.182.182,0,0,1,.093-.015l1.279.02h2.31V-5.869H79.9l-1.382.02q-.1,0-.1-.107v-.8q0-.107.1-.107l1.382.02h1.431v-.352a7.621,7.621,0,0,0-.068-1.187q.654.015,1.1.068.161.015.161.112a.416.416,0,0,1-.034.142.588.588,0,0,0-.039.117,3.911,3.911,0,0,0-.049.728v.371h1.6l1.377-.02q.1,0,.1.107v.8q0,.107-.1.107l-1.377-.02H82.4v1.421h2.461l1.279-.02q.088,0,.1.02a.168.168,0,0,1,.015.088v.776a.147.147,0,0,1-.017.09.171.171,0,0,1-.1.017L84.866-3.5h-2a8.15,8.15,0,0,0,1.763,1.655,9.413,9.413,0,0,0,2.007,1.1,2.7,2.7,0,0,0-.518.728q-.1.229-.171.229a.989.989,0,0,1-.239-.1,8.871,8.871,0,0,1-3.33-2.959q0,.43.034,2.246.015.991.015,1.26a.154.154,0,0,1-.02.1.168.168,0,0,1-.088.015h-.9q-.078,0-.093-.024a.153.153,0,0,1-.015-.088q0-.137.029-1.494.024-1.187.029-1.992A9.423,9.423,0,0,1,78.2.1a.631.631,0,0,1-.229.112q-.068,0-.181-.239a2.375,2.375,0,0,0-.479-.688A8.593,8.593,0,0,0,80.784-3.5ZM89.477-3l-1.274.02q-.078,0-.093-.024A.182.182,0,0,1,88.1-3.1v-.732q0-.078.02-.093A.168.168,0,0,1,88.2-3.94l1.274.02h2.4V-6.064H90.034l-1.338.02a.155.155,0,0,1-.1-.02.168.168,0,0,1-.015-.088v-.742q0-.078.024-.093A.153.153,0,0,1,88.7-7l1.338.02h1.841v-.21a8.43,8.43,0,0,0-.068-1.182q.615.02,1.079.073.142.01.142.1,0,.015-.063.278a3.688,3.688,0,0,0-.049.723v.22h1.992L96.245-7q.088,0,.1.02a.133.133,0,0,1,.02.088v.742q0,.078-.024.093a.2.2,0,0,1-.1.015l-1.338-.02H92.915v2.144h.63A8.331,8.331,0,0,0,94.2-5.283a2.716,2.716,0,0,0,.161-.532,8.347,8.347,0,0,1,1.011.254q.161.054.161.156a.141.141,0,0,1-.093.132,1.174,1.174,0,0,0-.249.361q-.356.62-.6.991h.859l1.27-.02a.155.155,0,0,1,.1.02.168.168,0,0,1,.015.088V-3.1a.172.172,0,0,1-.017.1q-.017.02-.1.02L95.454-3H93.545A9.668,9.668,0,0,0,97.134-.591a2.7,2.7,0,0,0-.518.728q-.112.249-.181.249a1.151,1.151,0,0,1-.229-.1,8.781,8.781,0,0,1-3.32-2.822q.01.684.034,2.129.015.9.015,1.094,0,.078-.02.093A.168.168,0,0,1,92.827.8h-.874q-.078,0-.093-.02a.168.168,0,0,1-.015-.088q0-.112.024-1.313.02-1.074.024-1.846A8.921,8.921,0,0,1,88.774.259a.989.989,0,0,1-.239.1q-.063,0-.19-.239a2.667,2.667,0,0,0-.469-.659A8.529,8.529,0,0,0,91.206-3Zm.869-2.715a8.277,8.277,0,0,1,.63,1.226.234.234,0,0,1,.015.068q0,.054-.117.093l-.718.273a.38.38,0,0,1-.107.029q-.049,0-.083-.088a5.989,5.989,0,0,0-.6-1.235.176.176,0,0,1-.034-.083q0-.049.117-.083l.7-.254a.341.341,0,0,1,.1-.024Q90.3-5.8,90.346-5.718Zm11.521-1.2q1.421-.063,2.588-.181l.039.869q-1.738.127-3.057.181a6.465,6.465,0,0,1-.781,1.138l-.229.22.029.044.249-.181a1.475,1.475,0,0,1,.859-.283,1.15,1.15,0,0,1,.835.322,1.451,1.451,0,0,1,.4.791q.405-.186,2-.869l.391.938q-1.338.444-2.344.889V-1.1h-.937V-2.6a5.276,5.276,0,0,0-1.211.8.848.848,0,0,0-.269.6.564.564,0,0,0,.381.571,4.152,4.152,0,0,0,1.4.161q1.128,0,2.593-.142l.049.933q-1.343.1-2.759.1a3.619,3.619,0,0,1-2.148-.454A1.315,1.315,0,0,1,99.5-1.128a1.719,1.719,0,0,1,.527-1.24A7.045,7.045,0,0,1,101.9-3.56a1.124,1.124,0,0,0-.166-.64.466.466,0,0,0-.366-.132,1.827,1.827,0,0,0-1.1.527,10.027,10.027,0,0,0-1.123,1.172l-.742-.64a11,11,0,0,0,2.031-2.749q-.283.01-.791.01-.322,0-.981-.02v-.879q.63.029,1.113.029.688,0,1.06-.01a12.162,12.162,0,0,0,.41-1.309l1.03.166Q102.092-7.466,101.867-6.919Zm6.218,2.52h.591v-.352h-.259l-1.1.02q-.083,0-.1-.02a.182.182,0,0,1-.015-.093l.02-.635v-.679l-.02-.649q0-.083.02-.1a.182.182,0,0,1,.093-.015l1.1.02h.259v-.361h-.518l-1.211.02q-.1,0-.1-.107v-.42a.178.178,0,0,1,.02-.107.155.155,0,0,1,.083-.015l1.211.02h.518a3.868,3.868,0,0,0-.049-.547q.469.015.869.059.132.015.132.088a.5.5,0,0,1-.039.122.536.536,0,0,0-.054.278h.474l1.2-.02q.078,0,.1.024a.2.2,0,0,1,.015.1v.42q0,.078-.02.093a.182.182,0,0,1-.093.015l-1.2-.02h-.474V-6.9h.293l1.089-.02q.078,0,.093.02a.182.182,0,0,1,.015.093l-.02.649v.679l.02.635q0,.083-.02.1a.168.168,0,0,1-.088.015l-1.089-.02h-.293V-4.4h.449l1.221-.02a.155.155,0,0,1,.1.02.168.168,0,0,1,.015.088v.454q0,.078-.02.093a.182.182,0,0,1-.093.015l-1.221-.02h-.449l.01.361q0,.078-.02.093a.2.2,0,0,1-.1.015h-.659a.178.178,0,0,1-.107-.02.168.168,0,0,1-.015-.088q0-.015,0-.127t.015-.234h-.581l-1.206.02q-.083,0-.1-.02a.168.168,0,0,1-.015-.088v-.454q0-.078.02-.093a.182.182,0,0,1,.093-.015Zm2.144-2.021H109.5v.371h.732Zm0,1.191V-5.6H109.5v.371Zm-2.222-.82h.708v-.371h-.708Zm0,.82h.708V-5.6h-.708Zm6.118,2.642a9.568,9.568,0,0,1,1.4,1.338.171.171,0,0,1,.049.088q0,.034-.1.093l-.552.317a.377.377,0,0,1-.1.054q-.039,0-.083-.068-.117-.161-.381-.483-.889.083-2.637.181v.84l.02.908a.154.154,0,0,1-.02.1.182.182,0,0,1-.093.015h-.859q-.078,0-.093-.02a.182.182,0,0,1-.015-.093l.02-.908v-.791q-1.421.059-2.842.093a1.125,1.125,0,0,0-.4.049.554.554,0,0,1-.181.049q-.063,0-.1-.122a7.562,7.562,0,0,1-.142-.83q.41.029,1.03.029.264,0,.537,0,.435,0,1.313-.01a8.377,8.377,0,0,0-1.353-.83q-.088-.049-.088-.083t.083-.1L109-3.13a.252.252,0,0,1,.122-.063.2.2,0,0,1,.1.044q.439.264.566.352a5.139,5.139,0,0,0,.664-.571,2.6,2.6,0,0,0,.269-.361,4.739,4.739,0,0,1,.7.41q.151.1.151.161,0,.088-.122.117a1.14,1.14,0,0,0-.3.181,7.148,7.148,0,0,1-.669.532q.034.029.278.205.146.107.239.186.713-.547,1.26-1.04a2.932,2.932,0,0,0,.352-.391,5.54,5.54,0,0,1,.762.381q.107.073.107.146t-.132.122a1.111,1.111,0,0,0-.317.171q-.439.376-.928.718.669-.024,1.626-.078l-.308-.283q-.059-.049-.059-.073t.107-.083l.449-.249a.249.249,0,0,1,.112-.044A.183.183,0,0,1,114.126-2.588Zm-2.769-1.294a7.117,7.117,0,0,0,1.289-.342,3.82,3.82,0,0,1-.82-1.03q-.181.01-.3.01a.178.178,0,0,1-.107-.02.127.127,0,0,1-.015-.078v-.522q0-.078.024-.093a.2.2,0,0,1,.1-.015l1.1.02h1.8a.475.475,0,0,0,.19-.029,1.093,1.093,0,0,1,.127-.029q.078,0,.322.22.278.244.278.327a.167.167,0,0,1-.1.142,1.1,1.1,0,0,0-.322.288,5.274,5.274,0,0,1-.85.82,7.278,7.278,0,0,0,1.88.449,1.533,1.533,0,0,0-.259.513q-.083.249-.181.249a1.11,1.11,0,0,1-.181-.029,6.9,6.9,0,0,1-2.041-.713,6.24,6.24,0,0,1-1.328.454.948.948,0,0,1-.186.034q-.093,0-.2-.225A2.235,2.235,0,0,0,111.357-3.882Zm2.031-.713a3.278,3.278,0,0,0,.737-.669h-1.44A3.193,3.193,0,0,0,113.388-4.595ZM111.177-6.67a1.476,1.476,0,0,0,.742-.376.949.949,0,0,0,.19-.625l-.02-.366q0-.083.02-.1a.168.168,0,0,1,.088-.015l.752.02h.7l.767-.02a.178.178,0,0,1,.107.02.182.182,0,0,1,.015.093l-.02.488v.439a.17.17,0,0,0,.059.151.443.443,0,0,0,.225.039.293.293,0,0,0,.249-.1,1.994,1.994,0,0,0,.068-.64,2.749,2.749,0,0,0,.5.21,1.008,1.008,0,0,1,.2.078.136.136,0,0,1,.039.107q0,.044-.01.137a.942.942,0,0,1-.293.7,1.48,1.48,0,0,1-.82.171,2.808,2.808,0,0,1-.8-.078.464.464,0,0,1-.259-.483v-.6h-.737a1.309,1.309,0,0,1-.273.806,1.8,1.8,0,0,1-.669.459.782.782,0,0,1-.229.078q-.083,0-.22-.229A1.127,1.127,0,0,0,111.177-6.67Zm4.272,6.538a1.864,1.864,0,0,0-.41.552q-.122.239-.22.239A.791.791,0,0,1,114.58.6,9.5,9.5,0,0,1,112.47-.43Q112.4-.474,112.4-.5t.063-.088l.43-.391a.2.2,0,0,1,.112-.059.242.242,0,0,1,.1.039A8.383,8.383,0,0,0,115.449-.132Zm-6.24-.83a5.308,5.308,0,0,1,.708.425q.112.073.112.146,0,.049-.151.122a2.233,2.233,0,0,0-.347.2,7.893,7.893,0,0,1-1.675.742q-.22.059-.239.059-.107,0-.229-.229A2.133,2.133,0,0,0,107,0a7.7,7.7,0,0,0,1.772-.6A2.1,2.1,0,0,0,109.209-.962ZM120.857-5.5l.62-.293a8.776,8.776,0,0,1,.879,1.592l-.64.317A8.039,8.039,0,0,0,120.857-5.5Zm1.157-.464.61-.288a9.651,9.651,0,0,1,.85,1.509l-.62.342A9.761,9.761,0,0,0,122.014-5.962Zm-.859-2.119.942.659a41.451,41.451,0,0,1-3.169,3.252.464.464,0,0,0-.19.342q0,.117.3.347A30.024,30.024,0,0,1,122.527-.2l-.9.752A24.622,24.622,0,0,0,117.9-3.159a.8.8,0,0,1-.332-.649.852.852,0,0,1,.269-.62q1.24-1.24,1.851-1.909Q120.417-7.139,121.155-8.081Z" transform="translate(-1414.5 15185.286)" fill="#fff"/>
    <path id="パス_185" data-name="パス 185" d="M1.76-15.639l1.627-2.822a47.941,47.941,0,0,1,8.533,3.6l-1.793,3.121A40.044,40.044,0,0,0,1.76-15.639Zm2.889-7.238L6.458-25.7a41.052,41.052,0,0,1,8.251,3.835l-1.926,3.138A30.176,30.176,0,0,0,4.648-22.877Zm18.1,1.079,3.387,1.942a34.666,34.666,0,0,1-2.772,8.019,21.718,21.718,0,0,1-3.785,5.578q-5.4,5.512-14.41,7.388L3.486-2.308q8.683-1.544,13.2-6.259a21.088,21.088,0,0,0,3.852-5.977A32.988,32.988,0,0,0,22.744-21.8Zm6.79,6.939H48.775v3.7H29.534Zm31.692-5.91H53.341v-3.237H73.03v3.237H65.111v17.4h9.612V-.133H51.979V-3.37h9.247Zm27.376,5.4A76.36,76.36,0,0,1,79.87-9.861l-2.142-2.955a56.523,56.523,0,0,0,10.924-7.072,34.738,34.738,0,0,0,6.989-7.687l3.5,2.142a58.757,58.757,0,0,1-6.724,6.973V1.494H88.6Zm22.03-1.859a54.869,54.869,0,0,1,13.032,5.263l-1.909,3.6A41.37,41.37,0,0,0,110.633-13.6V1.461h-3.8V-27.193h3.8Z" transform="translate(-1416.5 15218.798)" fill="#fff"/>
    <path id="合体_10" data-name="合体 10" d="M25.408,55.718a4.9,4.9,0,1,1,4.9,4.9A4.908,4.908,0,0,1,25.408,55.718ZM35.775,51.71a7.25,7.25,0,0,1-5.465-3.794,7.25,7.25,0,0,1-5.465,3.794,6.46,6.46,0,0,1-.7.038,5.67,5.67,0,0,1-4.616-2.239,5.81,5.81,0,0,1-.284-6.006,19.623,19.623,0,0,1,2.846-3.011,49.82,49.82,0,0,0,3.685-3.746,41.421,41.421,0,0,0,4-5.509l.529-.928-.928.53a41.6,41.6,0,0,0-5.509,4,50.216,50.216,0,0,0-3.746,3.683,19.619,19.619,0,0,1-3.01,2.847,5.364,5.364,0,0,1-2.738.7,5.628,5.628,0,0,1-3.268-.986,5.753,5.753,0,0,1-2.2-5.313A7.249,7.249,0,0,1,12.7,30.309,7.247,7.247,0,0,1,8.91,24.844a5.751,5.751,0,0,1,2.2-5.312,5.625,5.625,0,0,1,3.268-.987,5.363,5.363,0,0,1,2.738.7,19.653,19.653,0,0,1,3.01,2.846,50.128,50.128,0,0,0,3.746,3.685,41.561,41.561,0,0,0,5.508,4l.929.529-.529-.928a41.658,41.658,0,0,0-4-5.509,49.914,49.914,0,0,0-3.685-3.745,19.7,19.7,0,0,1-2.846-3.011,5.81,5.81,0,0,1,.284-6.006A5.669,5.669,0,0,1,24.15,8.871a6.441,6.441,0,0,1,.695.039A7.248,7.248,0,0,1,30.309,12.7,7.252,7.252,0,0,1,35.775,8.91a6.314,6.314,0,0,1,.7-.039,5.669,5.669,0,0,1,4.616,2.239,5.811,5.811,0,0,1,.284,6.006,19.68,19.68,0,0,1-2.847,3.011,49.8,49.8,0,0,0-3.684,3.745,41.44,41.44,0,0,0-4,5.508l-.529.929.928-.529a41.616,41.616,0,0,0,5.509-4,49.819,49.819,0,0,0,3.746-3.684,19.65,19.65,0,0,1,3.01-2.846,5.363,5.363,0,0,1,2.738-.7,5.625,5.625,0,0,1,3.268.987,5.752,5.752,0,0,1,2.2,5.312,7.247,7.247,0,0,1-3.794,5.465,7.249,7.249,0,0,1,3.794,5.465,5.753,5.753,0,0,1-2.2,5.313,5.628,5.628,0,0,1-3.268.986,5.361,5.361,0,0,1-2.738-.7,19.616,19.616,0,0,1-3.01-2.847,49.914,49.914,0,0,0-3.746-3.683,41.36,41.36,0,0,0-5.508-4l-.929-.529.53.928a41.517,41.517,0,0,0,4,5.509,49.914,49.914,0,0,0,3.684,3.746A19.607,19.607,0,0,1,41.371,43.5a5.811,5.811,0,0,1-.284,6.006,5.67,5.67,0,0,1-4.617,2.239A6.426,6.426,0,0,1,35.775,51.71Zm-5.466-21.4h0Zm20.507,0a4.9,4.9,0,1,1,4.9,4.9A4.908,4.908,0,0,1,50.816,30.309ZM0,30.309a4.9,4.9,0,1,1,4.9,4.9A4.908,4.908,0,0,1,0,30.309ZM25.408,4.9a4.9,4.9,0,1,1,4.9,4.9A4.908,4.908,0,0,1,25.408,4.9Z" transform="translate(-1485.31 15167.18)" fill="#fff"/>
    <path id="合体_10_-_アウトライン" data-name="合体 10 - アウトライン" d="M30.31,61.119a5.4,5.4,0,0,1-3.73-9.305,7.172,7.172,0,0,1-1.681.393,7,7,0,0,1-.751.041A6.181,6.181,0,0,1,19.128,49.8a6.033,6.033,0,0,1-1.075-3.243,5.949,5.949,0,0,1,.767-3.315,19.584,19.584,0,0,1,2.92-3.106l.01-.01A49.286,49.286,0,0,0,25.4,36.424a45.217,45.217,0,0,0,3.495-4.7,45.175,45.175,0,0,0-4.7,3.5,49.635,49.635,0,0,0-3.69,3.629l-.016.017A19.641,19.641,0,0,1,17.375,41.8a5.893,5.893,0,0,1-3,.774,6.076,6.076,0,0,1-3.562-1.082,6.257,6.257,0,0,1-2.4-5.771A7.166,7.166,0,0,1,8.8,34.04a5.4,5.4,0,1,1,0-7.462A7.168,7.168,0,0,1,8.413,24.9a6.252,6.252,0,0,1,2.4-5.771,6.073,6.073,0,0,1,3.562-1.082,5.889,5.889,0,0,1,3,.774,19.692,19.692,0,0,1,3.115,2.931A49.726,49.726,0,0,0,24.2,25.4a45.077,45.077,0,0,0,4.7,3.5A45.311,45.311,0,0,0,25.4,24.2a49.38,49.38,0,0,0-3.646-3.7l-.009-.009a19.669,19.669,0,0,1-2.921-3.107,5.949,5.949,0,0,1-.767-3.316,6.033,6.033,0,0,1,1.075-3.243A6.182,6.182,0,0,1,24.15,8.371a6.966,6.966,0,0,1,.749.041,7.177,7.177,0,0,1,1.682.393,5.4,5.4,0,1,1,7.46,0,7.175,7.175,0,0,1,1.681-.393,6.841,6.841,0,0,1,.751-.042,6.181,6.181,0,0,1,5.021,2.445,6.032,6.032,0,0,1,1.075,3.243,5.951,5.951,0,0,1-.766,3.315,19.692,19.692,0,0,1-2.927,3.112l0,0A49.432,49.432,0,0,0,35.222,24.2a45.3,45.3,0,0,0-3.492,4.693A45.511,45.511,0,0,0,36.424,25.4,49.353,49.353,0,0,0,40.13,21.75a19.677,19.677,0,0,1,3.115-2.931,5.89,5.89,0,0,1,3-.774A6.073,6.073,0,0,1,49.8,19.128a6.254,6.254,0,0,1,2.4,5.771,7.171,7.171,0,0,1-.392,1.68,5.4,5.4,0,1,1,0,7.46,7.165,7.165,0,0,1,.392,1.681,6.255,6.255,0,0,1-2.4,5.772,6.076,6.076,0,0,1-3.562,1.082,5.887,5.887,0,0,1-3-.774,19.623,19.623,0,0,1-3.115-2.932l-.015-.015a49.351,49.351,0,0,0-3.691-3.63,45.012,45.012,0,0,0-4.7-3.5,45.42,45.42,0,0,0,3.494,4.7,49.429,49.429,0,0,0,3.646,3.706l.006.005A19.609,19.609,0,0,1,41.8,43.245a5.951,5.951,0,0,1,.767,3.315A6.033,6.033,0,0,1,41.491,49.8a6.183,6.183,0,0,1-5.021,2.444,6.953,6.953,0,0,1-.749-.041,7.175,7.175,0,0,1-1.682-.393,5.4,5.4,0,0,1-3.729,9.305Zm0-9.8a4.4,4.4,0,1,0,4.4,4.4A4.407,4.407,0,0,0,30.31,51.316Zm0-4.4.433.746a6.746,6.746,0,0,0,5.087,3.548,5.944,5.944,0,0,0,.64.035,5.181,5.181,0,0,0,4.213-2.033,5.277,5.277,0,0,0,.259-5.454,19.577,19.577,0,0,0-2.757-2.9l-.006-.005a50.153,50.153,0,0,1-3.722-3.786,42.371,42.371,0,0,1-4.053-5.584h0l-.1-.168-.1.167a42.231,42.231,0,0,1-4.054,5.584,50.008,50.008,0,0,1-3.723,3.786l-.01.01a19.55,19.55,0,0,0-2.751,2.9,5.276,5.276,0,0,0,.259,5.454,5.18,5.18,0,0,0,4.212,2.033,5.987,5.987,0,0,0,.642-.035,6.745,6.745,0,0,0,5.087-3.547Zm0,3.4a5.385,5.385,0,0,1,1.534.222,8.571,8.571,0,0,1-1.534-1.691,8.572,8.572,0,0,1-1.534,1.691A5.384,5.384,0,0,1,30.31,50.316Zm1.176-19.911a41.858,41.858,0,0,1,5.583,4.054,50.075,50.075,0,0,1,3.771,3.706l.015.016a19.971,19.971,0,0,0,2.905,2.763,4.877,4.877,0,0,0,2.481.631,5.144,5.144,0,0,0,2.973-.89,5.254,5.254,0,0,0,2-4.854,6.746,6.746,0,0,0-3.548-5.087l-.746-.433.746-.432a6.742,6.742,0,0,0,3.547-5.087,5.253,5.253,0,0,0-2-4.853,5.141,5.141,0,0,0-2.973-.891,4.88,4.88,0,0,0-2.481.631,20.032,20.032,0,0,0-2.9,2.762,50.081,50.081,0,0,1-3.786,3.722,42.139,42.139,0,0,1-5.578,4.051l-.173.1.168.1ZM14.378,19.045a5.141,5.141,0,0,0-2.973.891,5.251,5.251,0,0,0-2,4.853,6.742,6.742,0,0,0,3.547,5.087l.746.432-.746.433a6.746,6.746,0,0,0-3.548,5.087,5.256,5.256,0,0,0,2,4.854,5.144,5.144,0,0,0,2.973.89,4.882,4.882,0,0,0,2.481-.631,20,20,0,0,0,2.9-2.762l.016-.017a50.363,50.363,0,0,1,3.77-3.7,41.95,41.95,0,0,1,5.583-4.053h0l.167-.1-.174-.1a42.239,42.239,0,0,1-5.576-4.05,50.452,50.452,0,0,1-3.786-3.722,19.663,19.663,0,0,0-2.9-2.762A4.879,4.879,0,0,0,14.378,19.045Zm41.34,6.862a4.4,4.4,0,1,0,4.4,4.4A4.407,4.407,0,0,0,55.718,25.907Zm-50.816,0a4.4,4.4,0,1,0,4.4,4.4A4.407,4.407,0,0,0,4.9,25.907Zm43.946,4.4a8.577,8.577,0,0,1,1.691,1.534,5.416,5.416,0,0,1,0-3.067A8.572,8.572,0,0,1,48.848,30.309ZM10.082,28.778a5.416,5.416,0,0,1,0,3.065,8.578,8.578,0,0,1,1.69-1.533A8.573,8.573,0,0,1,10.082,28.778ZM24.15,9.371A5.18,5.18,0,0,0,19.936,11.4a5.276,5.276,0,0,0-.26,5.454,19.641,19.641,0,0,0,2.753,2.9l.009.008a50.1,50.1,0,0,1,3.722,3.785,42.379,42.379,0,0,1,4.052,5.581l.1.17.1-.168a41.68,41.68,0,0,1,4.054-5.583,50.149,50.149,0,0,1,3.722-3.785l0,0a19.665,19.665,0,0,0,2.759-2.9,5.277,5.277,0,0,0-.26-5.454,5.179,5.179,0,0,0-4.212-2.034,5.84,5.84,0,0,0-.641.035,6.748,6.748,0,0,0-5.088,3.548l-.433.746-.432-.746A6.744,6.744,0,0,0,24.79,9.407,5.96,5.96,0,0,0,24.15,9.371Zm4.626.71a8.568,8.568,0,0,1,1.534,1.691,8.578,8.578,0,0,1,1.534-1.69,5.416,5.416,0,0,1-3.068,0ZM30.31.5a4.4,4.4,0,1,0,4.4,4.4A4.407,4.407,0,0,0,30.31.5Z" transform="translate(-1485.31 15167.18)" fill="rgba(0,0,0,0)"/>
  </g>
</svg>
