<svg xmlns="http://www.w3.org/2000/svg" width="27" height="27"><path d="M27 13.5a13.5 13.5 0 1 0-15.609 13.336V17.4H7.963v-3.9h3.428v-2.974c0-3.383 2.016-5.252 5.1-5.252a20.759 20.759 0 0 1 3.022.264v3.321h-1.7a1.951 1.951 0 0 0-2.2 2.108V13.5h3.744l-.6 3.9h-3.148v9.434A13.5 13.5 0 0 0 27 13.5Z" data-name="パス 79"/><path fill="#fff" d="m18.755 17.402.6-3.9h-3.744V10.97a1.951 1.951 0 0 1 2.2-2.108h1.7V5.54a20.759 20.759 0 0 0-3.022-.264c-3.084 0-5.1 1.869-5.1 5.252v2.974H7.963v3.9h3.428v9.434a13.647 13.647 0 0 0 4.219 0v-9.434Z" data-name="パス 80"/></svg>