<svg xmlns="http://www.w3.org/2000/svg" width="27" height="27"><circle cx="13.5" cy="13.5" r="13.5" fill="#000111" data-name="楕円形 5"/><g data-name="グループ 550"><path fill="#fff" d="M22.499 12.714c0-4.034-4.039-7.314-9.008-7.314s-9.012 3.281-9.012 7.314c0 3.615 3.206 6.643 7.537 7.216.294.063.693.193.794.445a1.86 1.86 0 0 1 .03.815l-.128.771c-.04.228-.181.891.78.486a29.1 29.1 0 0 0 7.081-5.232 6.507 6.507 0 0 0 1.932-4.5Z" data-name="パス 81"/><g fill="#000111" data-name="グループ 549" transform="translate(7.435 10.765)"><path d="M12.07 4.278a.172.172 0 0 0 .172-.172v-.64a.173.173 0 0 0-.172-.172h-1.724V2.63h1.72a.172.172 0 0 0 .172-.172V1.82a.173.173 0 0 0-.172-.172h-1.72V.984h1.72a.172.172 0 0 0 .172-.172V.173a.173.173 0 0 0-.172-.172H9.534a.172.172 0 0 0-.172.172V4.1a.172.172 0 0 0 .172.172Z" data-name="パス 82"/><path d="M2.704 4.278a.172.172 0 0 0 .172-.172v-.64a.173.173 0 0 0-.172-.172H.98V.172A.173.173 0 0 0 .808 0h-.64a.172.172 0 0 0-.172.172v3.93a.172.172 0 0 0 .172.172Z" data-name="パス 83"/><rect width=".983" height="4.277" data-name="長方形 301" rx=".491" transform="translate(3.417)"/><path d="M8.579 0h-.64a.172.172 0 0 0-.172.172v2.336l-1.8-2.43L5.953.06l-.01-.011-.009-.008h-.005L5.92.035h-.005L5.906.03H5.192a.172.172 0 0 0-.172.172v3.934a.172.172 0 0 0 .172.172h.64a.172.172 0 0 0 .172-.172V1.801l1.8 2.433a.166.166 0 0 0 .045.043l.011.007H7.898a.2.2 0 0 0 .045.006h.635a.172.172 0 0 0 .172-.172V.184a.172.172 0 0 0-.172-.172Z" data-name="パス 84"/></g></g></svg>