<svg xmlns="http://www.w3.org/2000/svg" width="27" height="27"><g transform="translate(-965 -5223)"><circle cx="13.5" cy="13.5" r="13.5" data-name="楕円形 4" transform="translate(965 5223)"/><path fill="#fff" d="M986.485 5233.253c.011.162.011.324.011.487a10.648 10.648 0 0 1-10.721 10.721 10.667 10.667 0 0 1-5.775-1.692 7.665 7.665 0 0 0 .9.054 7.566 7.566 0 0 0 4.679-1.616 3.773 3.773 0 0 1-3.52-2.617 3.756 3.756 0 0 0 1.7-.065 3.768 3.768 0 0 1-3.024-3.692v-.048a3.744 3.744 0 0 0 1.71.472 3.773 3.773 0 0 1-1.166-5.031 10.694 10.694 0 0 0 7.765 3.936 3.771 3.771 0 0 1 6.421-3.436 7.561 7.561 0 0 0 2.393-.915 3.782 3.782 0 0 1-1.658 2.084 7.493 7.493 0 0 0 2.164-.593 7.655 7.655 0 0 1-1.879 1.951Z"/></g></svg>