<svg xmlns="http://www.w3.org/2000/svg" width="60.125" height="64.751" viewBox="0 0 60.125 64.751">
  <path id="合体_16" data-name="合体 16" d="M5798.75-5940.25v-10.208l21.489-21.491a2.313,2.313,0,0,1,3.271,0l6.937,6.938a2.309,2.309,0,0,1,0,3.269l-21.489,21.491Zm4.624-8.293v3.668h3.668l11.562-11.562-3.667-3.668Zm14.833-14.833,3.668,3.668,3.668-3.668-3.668-3.667Zm-42.582,23.126a4.631,4.631,0,0,1-4.625-4.625v-55.5a4.63,4.63,0,0,1,4.625-4.625h37a4.631,4.631,0,0,1,4.625,4.625v23.126h-4.625v-23.126h-37v55.5H5789.5v4.625Zm4.125-9.375v-4h10v4Zm0-23v-5h14v5Zm0-9v-4h28v4Zm0-10v-4h28v4Z" transform="translate(-5771 6005)" fill="#1c468b"/>
</svg>
