<svg xmlns="http://www.w3.org/2000/svg" width="75.25" height="64.5" viewBox="0 0 75.25 64.5">
  <path id="合体_15" data-name="合体 15" d="M5787.375-6323.5a5.374,5.374,0,0,1-5.374-5.375v-53.75a5.374,5.374,0,0,1,5.374-5.375h64.5a5.375,5.375,0,0,1,5.375,5.375v53.75a5.375,5.375,0,0,1-5.375,5.375Zm0-5.375h64.5v-53.75h-64.5Zm53.75-8.062v-5.375a2.687,2.687,0,0,0-2.687-2.687h-16.125a2.687,2.687,0,0,0-2.687,2.687v5.375h-5.375v-5.375a8.063,8.063,0,0,1,8.063-8.062h16.125a8.063,8.063,0,0,1,8.062,8.063v5.375Zm-21.5-26.876a10.749,10.749,0,0,1,10.75-10.749,10.749,10.749,0,0,1,10.75,10.749,10.751,10.751,0,0,1-10.75,10.751A10.751,10.751,0,0,1,5819.625-6363.813Zm5.374,0a5.375,5.375,0,0,0,5.375,5.375,5.375,5.375,0,0,0,5.375-5.375,5.375,5.375,0,0,0-5.375-5.375A5.375,5.375,0,0,0,5825-6363.813Zm-32.375,8.063v-5h11v5Zm0-11v-5h19v5Z" transform="translate(-5782 6388)" fill="#1c468b"/>
</svg>
