<svg xmlns="http://www.w3.org/2000/svg" width="65.626" height="67.969" viewBox="0 0 65.626 67.969">
  <path id="合体_17" data-name="合体 17" d="M5825.875-6752.031a4.688,4.688,0,0,1-4.688-4.688v-16.406h4.688v16.406h9.375v-21.094h4.688v-14.062a2.343,2.343,0,0,0-2.343-2.343h-15.046l-10.735,18.749-10.735-18.749h-15.046a2.343,2.343,0,0,0-2.343,2.343v14.063h4.688v21.094h9.375v-16.406h4.688v16.406a4.688,4.688,0,0,1-4.688,4.688h-9.375a4.689,4.689,0,0,1-4.688-4.688v-16.406a4.689,4.689,0,0,1-4.688-4.688v-14.062a7.031,7.031,0,0,1,7.031-7.031H5803.8l8.016,14.063,8.016-14.062h17.766a7.031,7.031,0,0,1,7.031,7.031v14.063a4.689,4.689,0,0,1-4.688,4.688v16.406a4.689,4.689,0,0,1-4.688,4.688Zm-4.688-58.595a9.375,9.375,0,0,1,9.376-9.374,9.374,9.374,0,0,1,9.375,9.374,9.376,9.376,0,0,1-9.375,9.376A9.377,9.377,0,0,1,5821.187-6810.625Zm4.688,0a4.687,4.687,0,0,0,4.688,4.688,4.687,4.687,0,0,0,4.687-4.688,4.687,4.687,0,0,0-4.687-4.686A4.687,4.687,0,0,0,5825.875-6810.625Zm-42.187,0a9.374,9.374,0,0,1,9.375-9.374,9.375,9.375,0,0,1,9.376,9.374,9.377,9.377,0,0,1-9.376,9.376A9.376,9.376,0,0,1,5783.688-6810.625Zm4.688,0a4.687,4.687,0,0,0,4.687,4.688,4.687,4.687,0,0,0,4.688-4.688,4.687,4.687,0,0,0-4.688-4.686A4.687,4.687,0,0,0,5788.375-6810.625Z" transform="translate(-5779 6820)" fill="#1c468b"/>
</svg>
