<svg xmlns="http://www.w3.org/2000/svg" width="71.75" height="69.188" viewBox="0 0 71.75 69.188">
  <path id="パス_35" data-name="パス 35" d="M63.5,26.063H48.125V10.688A7.7,7.7,0,0,0,40.438,3H34.972A5.149,5.149,0,0,0,29.9,7.4L27.732,22.562,18.566,36.313H2V72.188H55.813A17.957,17.957,0,0,0,73.75,54.25V36.313A10.262,10.262,0,0,0,63.5,26.063Zm-46.125,41H7.125V41.438h10.25ZM68.625,54.25A12.827,12.827,0,0,1,55.813,67.063H22.5V39.651L32.642,24.438l2.33-16.313h5.465A2.565,2.565,0,0,1,43,10.688v20.5H63.5a5.131,5.131,0,0,1,5.125,5.125Z" transform="translate(-2 -3)" fill="#1c468b"/>
</svg>
