<svg xmlns="http://www.w3.org/2000/svg" width="60.125" height="64.75" viewBox="0 0 60.125 64.75">
  <path id="合体_20" data-name="合体 20" d="M1401.249-7637.25v-10.208l21.491-21.488a2.31,2.31,0,0,1,3.271,0l6.937,6.937a2.311,2.311,0,0,1,0,3.269l-21.491,21.491Zm4.626-8.292v3.667h3.667l11.563-11.563-3.667-3.667Zm14.833-14.833,3.667,3.669,3.667-3.669-3.667-3.667Zm-42.583,23.126a4.63,4.63,0,0,1-4.626-4.625v-55.5a4.63,4.63,0,0,1,4.626-4.625h37a4.63,4.63,0,0,1,4.625,4.625v23.124h-4.625v-23.124h-37v55.5H1392v4.625Zm4.125-9.375v-4h10v4Zm0-23v-5h14v5Zm0-9v-4h28v4Zm0-10v-4h28v4Z" transform="translate(-1373.5 7702)" fill="#1c468b"/>
</svg>
