<svg xmlns="http://www.w3.org/2000/svg" width="72.623" height="62.25" viewBox="0 0 72.623 62.25">
  <path id="合体_22" data-name="合体 22" d="M1386.687-8035.75a5.186,5.186,0,0,1-5.187-5.187v-51.875a5.187,5.187,0,0,1,5.187-5.188h62.25a5.187,5.187,0,0,1,5.187,5.188v51.875a5.186,5.186,0,0,1-5.187,5.187Zm0-5.187h62.25v-51.875h-62.25Zm51.875-7.782v-5.188a2.594,2.594,0,0,0-2.593-2.593h-15.564a2.594,2.594,0,0,0-2.593,2.593v5.188h-5.187v-5.188a7.78,7.78,0,0,1,7.78-7.78h15.564a7.78,7.78,0,0,1,7.78,7.78v5.188Zm-20.75-25.937a10.375,10.375,0,0,1,10.375-10.375,10.375,10.375,0,0,1,10.375,10.375,10.376,10.376,0,0,1-10.375,10.375A10.376,10.376,0,0,1,1417.813-8074.655Zm5.187,0a5.188,5.188,0,0,0,5.188,5.187,5.186,5.186,0,0,0,5.187-5.187,5.187,5.187,0,0,0-5.187-5.188A5.188,5.188,0,0,0,1423-8074.655Zm-31.245,7.78v-4.825h10.617v4.825Zm0-10.615v-4.827h18.338v4.827Z" transform="translate(-1381.501 8098)" fill="#1c468b"/>
</svg>
