<svg xmlns="http://www.w3.org/2000/svg" width="1789.277" height="204.708" viewBox="0 0 1789.277 204.708">
  <path id="パス_96" data-name="パス 96" d="M-830.927-70.137-843.232,0h-40.059l34.59-199.062,69.727.137q32.266,0,50.723,17.91t16.133,46.758Q-714.306-105-736.523-87.5T-793.193-70Zm5.605-33.223,33.359.273q16.133,0,26.8-8.34t12.715-22.559q2.051-14.219-4.58-22.7T-776.65-165.7l-37.734-.137ZM-538.087,0h-40.059l14.766-85.312h-77.246L-655.528,0h-40.059L-661-199.062h40.059L-635.02-118.4h77.383l13.945-80.664h40.059Zm89.677,0h-40.059l34.453-199.062h40.059Zm94.872-32.949h84.492L-274.788,0H-399.339l34.59-199.062h40.059ZM-168.432,2.734q-19.824-.41-34.932-9.365t-23.926-25.84q-8.818-16.885-10.186-38.76-1.5-22.422,4.785-47.852t20.234-44.707q13.945-19.277,32.744-28.848a84.765,84.765,0,0,1,40.674-9.16q20.1.41,35.137,9.5t23.652,26.113q8.613,17.021,9.844,38.623a160.8,160.8,0,0,1-5.2,49.492q-6.562,25.43-20.371,44.023T-128.305-6.152A84.528,84.528,0,0,1-168.432,2.734ZM-111.694-105l1.094-12.988q1.367-24.336-6.494-36.914t-23.857-13.125q-25.02-.82-39.717,22.148T-197.28-81.621q-1.367,24.2,6.426,37.256t24.2,13.6q21.465.957,35.547-16.748t18.457-50.107ZM61.245-53.184q2.871-16.27-16-24.883L18.862-88.594Q-27.076-109.1-24.752-145.059A51.865,51.865,0,0,1-13.814-174.59q9.98-12.852,28.027-20.166A99.23,99.23,0,0,1,53.178-201.8q28.848.547,46.621,17.158t17.5,44.5H77.377q.684-13.535-5.947-21.055t-20.576-7.793q-13.672-.273-23.789,6.221a25.52,25.52,0,0,0-12.031,17.842q-2.6,14.9,19.961,23.652l18.047,6.836,10.391,4.785q40.332,19.961,37.734,56.055-1.23,17.637-11.279,30.42T62.543-3.555A97.394,97.394,0,0,1,24.467,2.871Q3.276,2.461-13.267-6.016A58.6,58.6,0,0,1-38.423-29.941Q-46.49-44.3-45.943-62.754l40.059.137Q-7.8-30.215,25.971-29.668q14.629,0,24.063-6.426A25.021,25.021,0,0,0,61.245-53.184ZM211.214,2.734q-19.824-.41-34.932-9.365t-23.926-25.84q-8.818-16.885-10.186-38.76-1.5-22.422,4.785-47.852t20.234-44.707q13.945-19.277,32.744-28.848a84.765,84.765,0,0,1,40.674-9.16q20.1.41,35.137,9.5T299.4-166.182q8.613,17.021,9.844,38.623a160.8,160.8,0,0,1-5.2,49.492q-6.562,25.43-20.371,44.023T251.341-6.152A84.528,84.528,0,0,1,211.214,2.734ZM267.952-105l1.094-12.988q1.367-24.336-6.494-36.914t-23.857-13.125q-25.02-.82-39.717,22.148T182.366-81.621q-1.367,24.2,6.426,37.256t24.2,13.6q21.465.957,35.547-16.748T267-97.617Zm115.79,34.863L371.438,0H331.379l34.59-199.062,69.727.137q32.266,0,50.723,17.91t16.133,46.758Q500.363-105,478.146-87.5T421.477-70Zm5.605-33.223,33.359.273q16.133,0,26.8-8.34t12.715-22.559q2.051-14.219-4.58-22.7T438.02-165.7l-37.734-.137ZM676.583,0H636.524L651.29-85.312H574.044L559.141,0H519.083l34.59-199.062h40.059L579.649-118.4h77.383l13.945-80.664h40.059ZM804.4-109.648l55.645-89.414h45.938L819.033-70,807,0H766.259l12.988-74.512L737.959-198.926l42.246-.137Z" transform="translate(883.291 201.814)" fill="#fff" opacity="0.046"/>
</svg>
