<svg xmlns="http://www.w3.org/2000/svg" width="654.345" height="332.371" viewBox="0 0 654.345 332.371">
  <path id="パス_98" data-name="パス 98" d="M37.875-48.094,29.438,0H1.969L25.688-136.5l47.813.094q22.125,0,34.781,12.281t11.063,32.063Q117.844-72,102.609-60T63.75-48Zm3.844-22.781,22.875.188q11.063,0,18.375-5.719a23.012,23.012,0,0,0,8.719-15.469q1.406-9.75-3.141-15.562t-13.453-6.187l-25.875-.094ZM238.68,0H211.211l10.125-58.5H168.367L158.149,0H130.68L154.4-136.5h27.469l-9.656,55.313h53.063l9.563-55.312H262.3Zm61.492,0H272.7l23.625-136.5H323.8Zm65.055-22.594h57.938L419.228,0H333.821L357.54-136.5h27.469ZM492.158,1.875A48.093,48.093,0,0,1,468.2-4.547,43.348,43.348,0,0,1,451.8-22.266a65.616,65.616,0,0,1-6.984-26.578A106.838,106.838,0,0,1,448.1-81.656a87.564,87.564,0,0,1,13.875-30.656,63.069,63.069,0,0,1,22.453-19.781,58.124,58.124,0,0,1,27.891-6.281q13.781.281,24.094,6.516a43.042,43.042,0,0,1,16.219,17.906,66.381,66.381,0,0,1,6.75,26.484,110.26,110.26,0,0,1-3.562,33.938,86.12,86.12,0,0,1-13.969,30.188A62.587,62.587,0,0,1,519.673-4.219,57.962,57.962,0,0,1,492.158,1.875ZM531.064-72l.75-8.906q.938-16.687-4.453-25.312t-16.359-9q-17.156-.562-27.234,15.188T472.376-55.969q-.937,16.594,4.406,25.547t16.594,9.328q14.719.656,24.375-11.484t12.656-34.359Zm-454,227.531q1.969-11.156-10.969-17.062L48,131.25Q16.5,117.188,18.094,92.531a35.564,35.564,0,0,1,7.5-20.25q6.844-8.812,19.219-13.828a68.043,68.043,0,0,1,26.719-4.828Q91.313,54,103.5,65.391t12,30.516H88.125q.469-9.281-4.078-14.437T69.938,76.125a28.443,28.443,0,0,0-16.312,4.266,17.5,17.5,0,0,0-8.25,12.234q-1.781,10.219,13.688,16.219l12.375,4.688,7.125,3.281q27.656,13.688,25.875,38.438A37.085,37.085,0,0,1,96.7,176.109a43.6,43.6,0,0,1-18.75,13.453,66.785,66.785,0,0,1-26.109,4.406,58.481,58.481,0,0,1-25.875-6.094,40.186,40.186,0,0,1-17.25-16.406,42.484,42.484,0,0,1-5.156-22.5l27.469.094q-1.312,22.219,21.844,22.594,10.031,0,16.5-4.406A17.157,17.157,0,0,0,77.063,155.531ZM179.9,193.875a48.093,48.093,0,0,1-23.953-6.422,43.348,43.348,0,0,1-16.406-17.719,65.616,65.616,0,0,1-6.984-26.578,106.838,106.838,0,0,1,3.281-32.812,87.564,87.564,0,0,1,13.875-30.656,63.069,63.069,0,0,1,22.453-19.781,58.124,58.124,0,0,1,27.891-6.281q13.781.281,24.094,6.516a43.042,43.042,0,0,1,16.219,17.906,66.381,66.381,0,0,1,6.75,26.484,110.26,110.26,0,0,1-3.562,33.938,86.12,86.12,0,0,1-13.969,30.188,62.587,62.587,0,0,1-22.172,19.125A57.962,57.962,0,0,1,179.9,193.875ZM218.8,120l.75-8.906q.938-16.687-4.453-25.312t-16.359-9q-17.156-.562-27.234,15.188t-11.391,44.063q-.937,16.594,4.406,25.547t16.594,9.328q14.719.656,24.375-11.484t12.656-34.359Zm79.4,23.906L289.766,192H262.3L286.016,55.5l47.813.094q22.125,0,34.781,12.281t11.063,32.063Q378.172,120,362.938,132t-38.859,12Zm3.844-22.781,22.875.188q11.063,0,18.375-5.719a23.012,23.012,0,0,0,8.719-15.469q1.406-9.75-3.141-15.562t-13.453-6.187l-25.875-.094ZM499.009,192H471.54l10.125-58.5H428.7L418.478,192H391.009L414.728,55.5H442.2l-9.656,55.313H485.6L495.165,55.5h27.469Zm87.649-75.187L624.814,55.5h31.5L596.689,144l-8.25,48H560.5l8.906-51.094L541.095,55.594l28.969-.094Z" transform="translate(-1.969 138.387)" fill="#fff" opacity="0.046"/>
</svg>
